<svg aria-hidden="true" style="position:absolute;width:0;height:0;overflow:hidden" xmlns="http://www.w3.org/2000/svg"><defs><symbol id="icon-telegram" viewBox="0 0 32 32"><path fill="#fff" style="fill:var(--color1, #fff)" d="M32 0 0 18l10 4L26 7 14 23v9l6-7 7 3 5-28z"/></symbol><symbol id="icon-company-1" viewBox="0 0 28 32"><path fill="#afb1b8" style="fill:var(--color2, #afb1b8)" d="m4 0 5 5H0v21h23v-8l5 5V0H4zm19 18L9 5h14v13zm-4 5H4V8h1v14h14v1zM7 29v1l-1-1v3h1v-1l1-2H7zm1 3v-1h1v1h1l-1-3H8l-1 3h1zm1-2v1H8l1-1zm2 1v1h1c1 0 0 0 0 0h1l-1-1h1-1v-2h-1v2zm1 0h-1 1zm-1-1h1-1zm4 2 1-1h-2v-1h2-1v-1h-1v3h1zm3-1v-1a1 1 0 0 0-1-1h-1v3h2v-1zm-1-1h1v1h-2v-1h1z"/></symbol><symbol id="icon-company-2" viewBox="0 0 57 32"><path d="M27 3h-1a13 13 0 0 0-1 0l-5 2v12-1a21 21 0 0 1 6-1v2h-1a17 17 0 0 0-7 2V4a16 16 0 0 1 8-2 16 16 0 0 1 3 0v1h-2zm2 2h1a17 17 0 0 0 9-2v15a16 16 0 0 1-12 1V4a11 11 0 0 0 2 1zm8 0h-2a18 18 0 0 1-6 1v12h1a14 14 0 0 0 7-1V5zM19 24h-1a1 1 0 0 0 0 1v3h1a1 1 0 0 0 0-1h-1v-3h1v1a1 1 0 0 0 0-1zM22 24a1 1 0 0 0-1 0v4h1c1 0 0 0 0 0a1 1 0 0 0 0-1v-3zm0 3h-1v-3h1v3zM26 28v-4l-1 2-1-2v4-3h1v2l1-2v3zM29 24h-1v4-2h1l1-1a3 3 0 0 0 0-1h-1zm0 1v1h-1v-2h1v1zM32 24h-1v4-1h1v1h1l-1-4zm-1 2 1-1v1h-1zM35 26l-1-2v4-3l1 3h1v-4h-1v2zM38 24v1-1h-1l1 2v2-2l1-2h-1zM18 29v-1 1zM20 28l-1 1h1v-1zm0 1zM22 29v-1 1h-1 1zM24 28v1-1zM26 28v1-1zM28 29l-1-1v1h1v-1 1zM29 29h1-1 1v-1h-1v1h1-1zM33 29v-1 1-1 1zM35 29v-1h-1v1h1zM37 29v-1h-1v1h1zm0 0zM38 29h1-1 1v-1h-1v1h1-1z"/></symbol><symbol id="icon-company-3" viewBox="0 0 57 32"><path d="M19 26h1l-1 1h-1v-2a1 1 0 0 1 1 0h1-2v1a1 1 0 0 0 1 0zM23 26h-1v1h-1v-2h1a1 1 0 0 1 1 1zm-1 0v-1h-1v1h1zM25 26l1-1v2-2l-1 1-1-1v2-2l1 1zM28 26v1-2h1a1 1 0 0 1 0 1h-1zm0 0h1v-1h-1v1zM32 27h-1v-1h-1v1l1-2 1 2zm-2-1h1v-1l-1 1zM33 25l1 1v-1h1v2h-1l-1-2v2-2zM37 26v1h-1v-2h1a1 1 0 0 1 0 1v-1h1l-1 1zM25 21v1l5-4 2-5-2-2-1 6-4 4z"/><path d="m24 21 5-5v-6l-3-2c1 2 2 4 1 7l-3 6zM35 15l-4 5-2 1 4-2 3-3-1-1z"/><path d="m34 15-2-2-1 5-5 4 2-1 4-2 2-4zM24 6l-2-1c-2 0-3 1-4 3l-2 5 2 5c1 1 3 3 5 3 2-2 4-4 4-7l-3-8zM39 14l-3-6c-2-2-4-2-7-2h-4l13 11 1-3z"/></symbol><symbol id="icon-company-4" viewBox="0 0 57 32"><path d="m13 11-2 2 2 2 2-2-2-2zM30 11l-2-5c-1-2-3-1-5-1l-4 1-2 5v8s13-1 13-8zM6 22l1 3 4 1 3-1 1-3v-6s-9 1-9 6zm5 1H9v-1l1-1h1l1 1c1 1 0 0 0 0v1h-1zM20 23h-1v1-3h1v1h-1 1v1zm2-1v1l-1 1v-1h-1v-1l1-1h1v1zm0 0h-1v1h1v-1zm2 1h-1v-2h1v1h-1l1 1c0 1 0 0 0 0l-1 1v-1h-1 2zm2-1v2h-1v-2h-1v-1h2v1zm2 1h-1 1v1h-1v-3h1v1h-1 1v1zm1 0v1h-1v-3h2v3l-1-1zm0-1h1-1zm3 1v1h-1v-3h1l1 1v1h-1zm0-1zm3 1h-1 1v1h-2v-3h2v1h-1 1v1zm2-1h-1v2-2h-1v-1h2v1zm1 1h-1 2v1h-2v-3h2v1h-2 1v1zm2 0h-1v1-3h1l1 1h-1v1l1 1h-1v-1zm-1-1h1-1zm3 1-1-1v-1h1v1h1-2 1v1h1-1v1h-1v-1h1z"/></symbol><symbol id="icon-company-5" viewBox="0 0 57 32"><path d="M14 24v1h-2v-3h2v2zm-2-1h2l-1-1h-1v1zm2 2v-1c0-1 0 0 0 0h-2v1h2zM17 25v-1h-1v1h-1v-3h3v2h-1l1 1h-1zm-1-1h1v-1h-1v1zM21 25h-2l1-3h1l1 3h-1zm0-1v-1l-1 1h1zM26 25l-2-2v2h-1v-3h1l2 2v-2 3zM30 24v1h-3v-3h3v1a2 2 0 0 1 0 1zm0 0v-1h-2v2h1l1-1zM22 4s9 3 9 7v8s-9-3-9-8V4zM39 18c2-2 4-2 6-2v-3c-2 1-4 2-6 5z"/><path d="m38 18 7-5V5s-13 5-13 12v11l2-1v-1c0-3 2-6 4-8z"/><path d="M37 22v-2a10 10 0 0 0-2 7l2-1v-4zM37 22l1 3c3-2 7-5 7-8v-1l-7 3-1 3z"/></symbol><symbol id="icon-company-6" viewBox="0 0 57 32"><path d="M28 15v-4h3v1h-1v-1h-1v3h1v-1h1v2h-3zM32 15v-4h2l1 1v2l-1 1h-2zm2-1v-3h-1c-1 0 0 0 0 0v3h1zM36 11h1v3l1-3h1v4h-1v-3 3h-1l-1-3v3-4zM40 11h2l1 1-1 1h-1v2h-1v-4zm1 1a1 1 0 0 0 1 0v-1h-1v1zM44 11h1l1 4h-1v-1h-1v1h-1l1-4zm1 2v-1l-1 1h1zM47 11h1l1 2v-2h1v4h-1l-1-3v3h-1v-4zM51 13l-1-2h1l1 1v-1h1l-1 2v2h-1v-2zM30 17h-1v2-2h-1 2zM32 19v-1h-1l-1 1 1-2 1 2zm-1-1h1l-1-1v1zM34 19v-1h1v1a1 1 0 0 1-1 0h-1v-2a2 2 0 0 1 1 0 1 1 0 0 1 1 0h-1a1 1 0 0 0-1 0v2h1zM37 19h1-2v-2h1v2zM39 19h-1v-2h1v2zM40 17l1 1v-1 2l-1-2v2-2zM44 17h-1v1h1-1v1h1-2v-2h2zM11 5l14 3v12l-14-4V5zm-1-1v13l16 4V7L10 4z"/><path d="M19 27 3 23V10l16 4v13z"/><path d="m11 4 13 4-6 5L5 9l6-5zm-1 0-7 6 16 4 7-7-16-3zM20 26l6-5-6-2v7z"/></symbol><symbol id="icon-close" viewBox="0 0 32 32"><path d="m32 3-3-3-13 13L3 0 0 3l13 13L0 29l3 3 13-13 13 13 3-3-13-13L32 3z"/></symbol><symbol id="icon-envelope" viewBox="0 0 43 32"><path fill="#757575" style="fill:var(--color3, #757575)" d="M39 0H4C2 0 0 2 0 4v24c0 2 2 4 4 4h35c2 0 4-2 4-4V4c0-2-2-4-4-4zm0 3L21 18 3 3h36zm0 26H4l-1-1V6l17 15a1 1 0 0 0 2 0L40 6v22l-1 1z"/></symbol><symbol id="icon-smartphone" viewBox="0 0 20 32"><path fill="#757575" style="fill:var(--color3, #757575)" d="M17 0H3C1 0 0 1 0 3v26c0 2 1 3 3 3h14c2 0 3-1 3-3V3c0-2-1-3-3-3zM3 2h14l1 1v21H2V3l1-1zm14 28H3l-1-1v-3h16v3l-1 1z"/><path fill="#757575" style="fill:var(--color3, #757575)" d="M5 27v2H3v-2h2z"/></symbol><symbol id="icon-antenna-1" viewBox="0 0 32 32"><path d="m31 22-9-8 1-5h1a2 2 0 1 0-2-1h-5L9 0H8L7 2l1 1a15 15 0 0 0 2 18v7H4c-2 0-3 1-3 2v1l1 1h24l1-1v-1l-3-2h-6v-3a15 15 0 0 0 10-1h1v1-1l2-1v-1zM23 6a1 1 0 1 1 1 2 1 1 0 0 1-1-2zm-1 4-1 3-1-1 2-2zm-1-1-2 2-1-2h3zm3 20 2 1v1H2v-1l2-1h20zm-7-2v1h-6v-1h6zm-6-1v-4c0-2 1-3 3-3s3 1 3 3v4h-6zm7-2v-2c0-2-2-4-4-4l-3 2C7 16 6 9 8 4l19 19c-3 1-6 2-9 1zm11-1L8 2l1-1 8 8 13 13-1 1z"/><path d="M14 20a2 2 0 1 0 0 3 2 2 0 1 0 0-3zm0 2a1 1 0 0 1 0-1 1 1 0 0 1 0 1z"/></symbol><symbol id="icon-clock-1" viewBox="0 0 32 32"><path d="M31 15a15 15 0 1 0-19 15v-1l4-12a2 2 0 1 0-1-3l-5-6a1 1 0 0 0-1 1l5 5 1 3-4 11a14 14 0 1 1 11 0l-1-2a1 1 0 0 0-1 0l-4 3a1 1 0 0 0 1 1l5 2a1 1 0 0 0 0-1v-2c6-2 9-8 9-14zm-15 0a1 1 0 1 1 0 1 1 1 0 0 1 0-1zm2 15 2-2 1 2h-3z"/><path d="M15 3v1a1 1 0 1 0 2 0V3a1 1 0 0 0-2 0zM4 15a1 1 0 0 0 0 1h1a1 1 0 1 0 0-1H4zM28 16a1 1 0 1 0 0-1h-1a1 1 0 0 0 0 1h1z"/></symbol><symbol id="icon-diagram-1" viewBox="0 0 32 32"><path d="M15 15h1v5h-1v-5zM19 17h1v3h-1v-3zM11 19h1v1h-1v-1zM7 18h2v2H7v-2z"/><path d="M2 28h25l2-1v-2l-2-2V10l3-3a2 2 0 1 0-1-1l-2 2V7l-2-2H4L2 7v16l-2 2v2l2 1zM30 5a1 1 0 1 1 0 1 1 1 0 0 1 0-1zM3 7l1-1h21l1 1v2l-1 1V8H4v13l1 1h19l1-1v-9l1-1v12H3V7zm5 7a2 2 0 1 0 1 3l2 1 1-1 4-4 3 3h1l3-3v8H5V9h18v2l-3 4-4-3h-1l-4 4h-1v-1l-2-1zm1 1a1 1 0 1 1-2 0 1 1 0 0 1 2 0zm3 9h5v1h-5v-1zM1 25l1-1h9v1l1 1h5l1-1v-1h9l1 1v2H1v-2z"/></symbol><symbol id="icon-astronaut-1" viewBox="0 0 32 32"><path d="M32 5V4h-2l-1-2h-1l-1 2h-2a1 1 0 0 0 0 1l1 1v3h1l1-1 2 1a1 1 0 0 0 1-1l-1-2 2-1zm-2 1h-1l1 1h-1a1 1 0 0 0-1 0h-1V6l-1-1h2V4l1 1h1v1zM26 21h-1v1h1v-1zM26 23h-1v1h1v-1zM27 22h-1v1h1v-1zM25 22h-1v1h1v-1zM22 26h-1v1h1v-1zM22 29h-1v1h1v-1zM23 27h-1v2h1v-2zM21 27h-1v2h1v-2zM16 24h-1v1h1v-1zM16 26h-1v1h1v-1zM17 25h-1v1h1v-1zM15 25h-1v1h1v-1zM6 6H5v1h1V6zM6 8H5v1h1V8zM7 7H6v1h1V7zM5 7H4v1h1V7z"/><path d="m25 14-1-1-2 1-1 1-2 1h-1a7 7 0 0 0-3-14 7 7 0 0 0-6 11H6l-3 2-2 1a2 2 0 0 0 1 3h1l1-1 2-1h2l-6 5-1 2a2 2 0 0 0 0 2 2 2 0 0 0 2 0l2-1 1-2 1 1-2 2-1 1a2 2 0 0 0 0 3 2 2 0 0 0 2 0l4-4 1-1 5-6 4 1 3-2 2-1v-3zM2 18a1 1 0 0 1-1-1l2-1v1l-1 1zm4-2-2 1v-2l2-1v2zm15-7-1 3-4-2-1-1 2-5c2 0 4 3 4 5zM9 9a6 6 0 0 1 7-5l-2 4a2 2 0 1 0 0 4l2-1 4 2A6 6 0 0 1 9 9zm6 1a1 1 0 0 1-2 0 1 1 0 0 1 2 0zM2 25a1 1 0 0 1 0-1l1-1v1l-1 1zm4 4H5a1 1 0 0 1 0-1l1-1 1 1-1 1zm3-4-2 2v-1l1-1v-1l-1-2H6l-2 1H3l3-3 4 4-1 1zm7-7v1l-5 5-5-5 3-2a1 1 0 0 0 0-1H7v-2h3a7 7 0 0 0 6 2l3 1v2l-3-1zm4 1v-2l1-1 1 1-2 2zm4-3-1 1-1-2h1s0-1 0 0a1 1 0 0 1 1 1z"/><path d="m14 19-3-3-2 3 2 2 3-2zm-3 1-1-1 1-1 1 1-1 1zM17 5v1l2 2h1c0-2-2-3-3-3zM20 9h-1v1h1V9z"/></symbol><symbol id="icon-facebook" viewBox="0 0 32 32"><path d="M19 6h5V0h-5c-4 0-7 3-7 7v3H8v6h4v16h6V16h5l1-6h-6V7l1-1z"/></symbol><symbol id="icon-instagram" viewBox="0 0 32 32"><path d="M16 3a112 112 0 0 1 9 1l2 1 1 2 1 3a113 113 0 0 1-1 15l-1 2-2 1-3 1a113 113 0 0 1-15-1l-2-1-1-2-1-3A113 113 0 0 1 4 7l1-2 2-1 3-1h6zm0-3A117 117 0 0 0 6 1C4 1 4 2 3 3S1 4 1 6L0 9a118 118 0 0 0 1 17c0 2 1 2 2 3s1 2 3 2l3 1a117 117 0 0 0 17-1c2 0 2-1 3-2l2-3 1-3a117 117 0 0 0-1-17c0-2-1-2-2-3s-1-2-3-2l-3-1h-7z"/><path d="M16 8a8 8 0 1 0 0 16 8 8 0 0 0 0-16zm0 13a5 5 0 1 1 0-10 5 5 0 0 1 0 10zM26 7a2 2 0 1 1-3 0 2 2 0 0 1 3 0z"/></symbol><symbol id="icon-linkedin" viewBox="0 0 32 32"><path d="M12 12h6v3c0-2 2-3 5-3 6 0 7 4 7 8v10h-6v-9c0-2 0-4-3-4s-3 2-3 4v9h-6V12zM2 12h6v18H2V12zM8 7a3 3 0 1 1-6 0 3 3 0 0 1 6 0z"/></symbol><symbol id="icon-twitter" viewBox="0 0 32 32"><path d="m32 7-4 1c2-1 3-2 3-4l-4 2a7 7 0 0 0-11 6C10 12 5 9 2 5a7 7 0 0 0 2 9l-3-1c0 3 3 6 6 7a7 7 0 0 1-3 0c0 2 3 4 6 4a13 13 0 0 1-10 3 19 19 0 0 0 29-17l3-3z"/></symbol></defs></svg>